<svg xmlns="http://www.w3.org/2000/svg" xmlns:xlink="http://www.w3.org/1999/xlink" fill="none" version="1.1" width="32" height="32" viewBox="0 0 32 32"><defs><clipPath id="master_svg0_1_170774"><rect x="0" y="0" width="32" height="32" rx="0"/></clipPath><linearGradient x1="0.8902438879013062" y1="0" x2="0.5" y2="1" id="master_svg1_1_22204"><stop offset="0%" stop-color="#74F9FC" stop-opacity="1"/><stop offset="100%" stop-color="#54BAF8" stop-opacity="1"/></linearGradient><linearGradient x1="1" y1="0" x2="0.5" y2="1" id="master_svg2_1_22230"><stop offset="0%" stop-color="#48A0F7" stop-opacity="1"/><stop offset="100%" stop-color="#1234F4" stop-opacity="1"/></linearGradient><linearGradient x1="0.31678831577301025" y1="0.3509933650493622" x2="1" y2="0.3509933650493622" id="master_svg3_1_22225"><stop offset="0%" stop-color="#382BE7" stop-opacity="1"/><stop offset="100%" stop-color="#B391F7" stop-opacity="1"/></linearGradient><linearGradient x1="0.31678831577301025" y1="0.3509933650493622" x2="1" y2="0.3509933650493622" id="master_svg4_1_22225"><stop offset="0%" stop-color="#382BE7" stop-opacity="1"/><stop offset="100%" stop-color="#B391F7" stop-opacity="1"/></linearGradient><linearGradient x1="0.5" y1="0" x2="0.5" y2="1" id="master_svg5_1_22222"><stop offset="0%" stop-color="#3376F6" stop-opacity="1"/><stop offset="100%" stop-color="#3376F6" stop-opacity="0"/></linearGradient><linearGradient x1="0.5" y1="-0.20895534753799438" x2="0.5" y2="0.5" id="master_svg6_1_22208"><stop offset="0%" stop-color="#74F9FC" stop-opacity="1"/><stop offset="99.28571581840515%" stop-color="#2A64F6" stop-opacity="1"/></linearGradient><linearGradient x1="0.8571422696113586" y1="0.7696346640586853" x2="0.09243690967559814" y2="0.1357288807630539" id="master_svg7_1_22217"><stop offset="2.7397260069847107%" stop-color="#48EBF7" stop-opacity="1"/><stop offset="30.714285373687744%" stop-color="#48A0F7" stop-opacity="1"/><stop offset="100%" stop-color="#1234F4" stop-opacity="1"/></linearGradient></defs><g clip-path="url(#master_svg0_1_170774)"><g><g><g><ellipse cx="15.797982692718506" cy="3.3447659015655518" rx="2.851351499557495" ry="2.8447659015655518" fill="url(#master_svg1_1_22204)" fill-opacity="1"/></g><g><ellipse cx="8.296527743339539" cy="26.776798725128174" rx="4.730046272277832" ry="4.723171710968018" fill="url(#master_svg2_1_22230)" fill-opacity="1"/></g><g><ellipse cx="19.222269535064697" cy="13.871232748031616" rx="3.5308797359466553" ry="3.5257480144500732" fill="url(#master_svg3_1_22225)" fill-opacity="1"/></g><g><g><path d="M15.933784748764038,25.39660494552612Q15.217074748764038,21.284574945526124,9.562314748764038,19.456244945526123Q12.573554748764039,19.908216945526124,15.105124748764037,20.120909945526122Q17.531814748764038,20.32479094552612,20.007514748764038,19.942371945526123Q20.91641474876404,19.642401945526125,21.873714748764037,19.642401945526125Q22.019614748764038,19.642401945526125,22.16531474876404,19.649543945526123Q22.311014748764038,19.656684945526123,22.45621474876404,19.670950945526123Q22.601414748764036,19.685216945526122,22.745714748764037,19.706572945526123Q22.890014748764038,19.727927945526122,23.03311474876404,19.756322945526122Q23.176114748764036,19.784716945526124,23.31771474876404,19.820080945526122Q23.45921474876404,19.855445945526125,23.59881474876404,19.897694945526123Q23.738414748764036,19.939943945526124,23.87571474876404,19.98897594552612Q24.01311474876404,20.038008945526123,24.147814748764038,20.093705945526125Q24.28261474876404,20.149403945526124,24.414514748764038,20.211631945526122Q24.546414748764036,20.273859945526123,24.67501474876404,20.34246894552612Q24.803714748764037,20.411077945526124,24.92881474876404,20.485904945526123Q25.053914748764036,20.560724945526122,25.175214748764038,20.641584945526123Q25.29651474876404,20.722444945526124,25.413714748764036,20.80914494552612Q25.53091474876404,20.89584494552612,25.643614748764037,20.988184945526122Q25.756414748764037,21.080514945526122,25.864514748764037,21.178254945526124Q25.972614748764038,21.275994945526122,26.07571474876404,21.378914945526123Q26.178914748764036,21.481824945526125,26.27691474876404,21.589664945526124Q26.374814748764038,21.697504945526124,26.46741474876404,21.810014945526124Q26.559914748764037,21.922524945526124,26.646814748764037,22.03942494552612Q26.733714748764037,22.156324945526123,26.81481474876404,22.277344945526124Q26.89581474876404,22.398354945526123,26.970814748764038,22.52319494552612Q27.045814748764037,22.648034945526124,27.114614748764037,22.77639494552612Q27.183414748764037,22.904744945526122,27.245714748764037,23.036314945526122Q27.308114748764037,23.167884945526122,27.36391474876404,23.302354945526123Q27.419714748764036,23.436824945526123,27.46891474876404,23.573854945526122Q27.51801474876404,23.71089494552612,27.56041474876404,23.850174945526124Q27.60271474876404,23.989444945526124,27.63821474876404,24.130624945526122Q27.673614748764038,24.271814945526124,27.70211474876404,24.414554945526124Q27.730514748764037,24.557304945526123,27.751914748764037,24.701274945526123Q27.773414748764036,24.845244945526122,27.78771474876404,24.99008494552612Q27.802014748764037,25.134934945526123,27.80911474876404,25.280304945526122Q27.81631474876404,25.425664945526123,27.81631474876404,25.571214945526123Q27.81631474876404,25.716754945526123,27.80911474876404,25.862124945526123Q27.802014748764037,26.007494945526123,27.78771474876404,26.15233494552612Q27.773414748764036,26.297184945526123,27.751914748764037,26.441154945526122Q27.730514748764037,26.585114945526122,27.70211474876404,26.72786494552612Q27.673614748764038,26.87061494552612,27.63821474876404,27.011794945526123Q27.60271474876404,27.152974945526122,27.56041474876404,27.292254945526125Q27.51801474876404,27.431534945526124,27.46891474876404,27.568564945526123Q27.419714748764036,27.705604945526122,27.36391474876404,27.840074945526123Q27.308114748764037,27.974534945526123,27.245714748764037,28.106104945526123Q27.183414748764037,28.237674945526123,27.114614748764037,28.366034945526124Q27.045814748764037,28.494394945526125,26.970814748764038,28.619234945526124Q26.89581474876404,28.744064945526123,26.81481474876404,28.86508494552612Q26.733714748764037,28.986094945526123,26.646814748764037,29.103004945526123Q26.559914748764037,29.219904945526125,26.46741474876404,29.332414945526125Q26.374814748764038,29.444914945526122,26.27691474876404,29.552744945526122Q26.178914748764036,29.660644945526123,26.07571474876404,29.76354494552612Q25.972614748764038,29.866444945526123,25.864514748764037,29.964144945526122Q25.756414748764037,30.061944945526122,25.643614748764037,30.154244945526123Q25.53091474876404,30.246544945526125,25.413714748764036,30.333244945526125Q25.29651474876404,30.419944945526122,25.175214748764038,30.500844945526126Q25.053914748764036,30.581744945526125,24.92881474876404,30.65654494552612Q24.803714748764037,30.731344945526125,24.67501474876404,30.79994494552612Q24.546414748764036,30.868544945526125,24.414514748764038,30.930844945526125Q24.28261474876404,30.993044945526123,24.147814748764038,31.048744945526124Q24.01311474876404,31.104444945526122,23.87571474876404,31.153444945526125Q23.738414748764036,31.202444945526125,23.59881474876404,31.244744945526122Q23.45921474876404,31.286944945526123,23.31771474876404,31.322344945526122Q23.176114748764036,31.35774494552612,23.03311474876404,31.386144945526123Q22.890014748764038,31.414544945526124,22.745714748764037,31.43584494552612Q22.601414748764036,31.45724494552612,22.45621474876404,31.471444945526123Q22.311014748764038,31.485744945526122,22.16531474876404,31.492844945526123Q22.019614748764038,31.50004494552612,21.873714748764037,31.50004494552612Q21.727914748764036,31.50004494552612,21.582114748764038,31.492844945526123Q21.436414748764037,31.485744945526122,21.291314748764037,31.471444945526123Q21.146114748764038,31.45724494552612,21.00181474876404,31.43584494552612Q20.85751474876404,31.414544945526124,20.71441474876404,31.386144945526123Q20.57131474876404,31.35774494552612,20.429814748764038,31.322344945526122Q20.288314748764037,31.286944945526123,20.148714748764036,31.244744945526122Q20.009114748764038,31.202444945526125,19.871814748764038,31.153444945526125Q19.73441474876404,31.104444945526122,19.59961474876404,31.048744945526124Q19.46485474876404,30.993044945526123,19.33298474876404,30.930844945526125Q19.20110474876404,30.868544945526125,19.072454748764038,30.79994494552612Q18.943794748764038,30.731344945526125,18.81867474876404,30.65654494552612Q18.69354474876404,30.581744945526125,18.57225474876404,30.500844945526126Q18.45095474876404,30.419944945526122,18.33378474876404,30.333244945526125Q18.216604748764038,30.246544945526125,18.10384474876404,30.154244945526123Q17.99107474876404,30.061944945526122,17.882984748764038,29.964144945526122Q17.77489474876404,29.866444945526123,17.671734748764038,29.76354494552612Q17.56858474876404,29.660644945526123,17.47061474876404,29.552744945526122Q17.372654748764038,29.444914945526122,17.28010474876404,29.332414945526125Q17.187554748764036,29.219904945526125,17.100654748764036,29.103004945526123Q17.013754748764036,28.986094945526123,16.93270474876404,28.86508494552612Q16.851664748764037,28.744064945526123,16.776664748764038,28.619234945526124Q16.70166474876404,28.494394945526125,16.632894748764038,28.366034945526124Q16.56413474876404,28.237674945526123,16.50175474876404,28.106104945526123Q16.439384748764038,27.974534945526123,16.383554748764038,27.840074945526123Q16.327734748764037,27.705604945526122,16.27858474876404,27.568564945526123Q16.22944474876404,27.431534945526124,16.18709474876404,27.292254945526125Q16.144744748764037,27.152974945526122,16.10930474876404,27.011794945526123Q16.073854748764038,26.87061494552612,16.04539474876404,26.72786494552612Q16.016934748764037,26.585114945526122,15.995524748764037,26.441154945526122Q15.974124748764037,26.297184945526123,15.959824748764039,26.15233494552612Q15.945524748764038,26.007494945526123,15.938364748764037,25.862124945526123Q15.931214748764038,25.716754945526123,15.931214748764038,25.571214945526123Q15.931214748764038,25.48388494552612,15.933784748764038,25.39660494552612Z" fill-rule="evenodd" fill="url(#master_svg4_1_22225)" fill-opacity="1"/></g><g transform="matrix(0.2594165802001953,0.9657655358314514,-0.9660854339599609,0.25822269916534424,16.77987202464783,-4.917080248690283)"><path d="M11.60126280784607,8.682865978240967Q13.20386280784607,8.691643978240966,13.700982807846069,9.437367978240967Q14.08219280784607,10.009205978240967,13.813362807846069,11.014375978240967Q13.64780280784607,11.633375978240966,13.86002280784607,11.817885978240966Q14.44181280784607,12.323725978240967,17.86284280784607,9.563995978240968Q15.03734280784607,8.805477978240967,13.751192807846069,8.570449878240966Q12.46504680784607,8.335421978240968,11.60126280784607,8.682865978240967Z" fill="url(#master_svg5_1_22222)" fill-opacity="1"/></g><g><path d="M13.362999187088013,10.100076623077392Q13.485199187088012,10.060986623077392,13.599739187088012,10.003246623077393Q13.714279187088012,9.945516623077392,13.818319187088013,9.870556623077393Q13.922359187088013,9.795606623077393,14.013319187088012,9.705296623077393Q14.104289187088012,9.614976623077393,14.179919187088013,9.511546623077393Q14.255549187088013,9.408106623077392,14.313979187088012,9.294116623077393Q14.372399187088012,9.180126623077392,14.412179187088013,9.058396623077392Q14.451949187088012,8.936666623077393,14.472089187088013,8.810216623077393Q14.492219187088013,8.683776623077392,14.492219187088013,8.555736623077392Q14.492219187088013,8.476066623077394,14.484399187088012,8.396776623077393Q14.476569187088012,8.317486623077393,14.460989187088012,8.239346623077392Q14.445409187088012,8.161206623077392,14.422229187088012,8.084956623077392Q14.399049187088012,8.008716623077392,14.368489187088013,7.935106623077393Q14.337929187088012,7.861501623077393,14.300279187088012,7.791236623077393Q14.262639187088013,7.720970623077393,14.218269187088012,7.654724623077392Q14.173899187088013,7.588479623077393,14.123239187088013,7.526891623077392Q14.072579187088014,7.465302623077393,14.016119187088012,7.408965623077393Q13.959649187088013,7.3526286230773925,13.897919187088013,7.302084623077393Q13.836189187088014,7.251540623077393,13.769789187088012,7.207276623077393Q13.703389187088012,7.1630126230773925,13.632959187088012,7.125454623077393Q13.562529187088012,7.087896623077393,13.488749187088013,7.057407623077393Q13.414969187088012,7.026917923077392,13.338559187088013,7.003790023077393Q13.262139187088012,6.980662123077392,13.183809187088013,6.965118723077393Q13.105489187088013,6.949575323077393,13.026019187088012,6.941765953077392Q12.946539187088012,6.933956623077393,12.866689187088014,6.933956623077393Q12.786829187088014,6.933956623077393,12.707359187088013,6.941765953077392Q12.627879187088013,6.949575323077393,12.549559187088013,6.965118723077393Q12.471239187088013,6.980662123077392,12.394819187088013,7.003790023077393Q12.318399187088012,7.026917923077392,12.244619187088013,7.057407623077393Q12.170841187088012,7.087896623077393,12.100413187088012,7.125454623077393Q12.029985187088013,7.1630126230773925,11.963586187088012,7.207276623077393Q11.897187187088013,7.251540623077393,11.835456187088013,7.302084623077393Q11.773726187088013,7.3526286230773925,11.717258187088012,7.408965623077393Q11.660790187088013,7.465302623077393,11.610129187088013,7.526891623077392Q11.559468187088013,7.588479623077393,11.515101187088012,7.654724623077392Q11.470735187088012,7.720970623077393,11.433090187088013,7.791236623077393Q11.395446187088012,7.861501623077393,11.364886187088013,7.935106623077393Q11.334325687088013,8.008716623077392,11.311144287088013,8.084956623077392Q11.287962887088012,8.161206623077392,11.272383387088013,8.239346623077392Q11.256803987088013,8.317486623077393,11.248976587088013,8.396776623077393Q11.241149187088013,8.476066623077394,11.241149187088013,8.555736623077392Q11.241149187088013,8.746836623077392,11.285668787088012,8.932696623077392Q11.330188487088012,9.118556623077392,11.416789187088012,9.289006623077393Q11.503390187088012,9.459446623077392,11.627328187088013,9.605146623077392Q11.751266187088012,9.750846623077393,11.905753187088013,9.863806623077393Q11.869652187088013,10.435686623077393,11.866583187088013,10.797076623077393Q11.860109187088012,11.559346623077392,12.160537187088012,12.274606623077393Q12.307069187088013,10.815636623077392,13.293079187088013,10.151026623077392Q13.330349187088013,10.125896623077393,13.362999187088013,10.100076623077392Z" fill-rule="evenodd" fill="url(#master_svg6_1_22208)" fill-opacity="1"/></g><g><path d="M7.837929952316284,19.269721616439817Q7.807409952316284,19.27014161643982,7.776889952316284,19.27014161643982Q7.6669899523162846,19.27014161643982,7.557219952316284,19.26476161643982Q7.447449952316284,19.259381616439818,7.338079952316284,19.24863161643982Q7.228699952316284,19.23788161643982,7.119989952316285,19.22179161643982Q7.0112799523162845,19.205701616439818,6.903489952316284,19.18431161643982Q6.7956999523162835,19.162921616439817,6.689089952316284,19.136281616439817Q6.582489952316284,19.10964161643982,6.477319952316284,19.077811616439817Q6.372149952316285,19.045981616439818,6.268669952316284,19.00904161643982Q6.165189952316284,18.97210161643982,6.063659952316284,18.93014161643982Q5.962119952316284,18.88818161643982,5.862769952316285,18.84130161643982Q5.763419952316284,18.79442161643982,5.6664999523162844,18.74273161643982Q5.569569952316284,18.69105161643982,5.475309952316284,18.63468161643982Q5.381039952316284,18.57830161643982,5.289659952316284,18.51739161643982Q5.198279952316284,18.45647161643982,5.110009952316284,18.39115161643982Q5.021739952316285,18.32584161643982,4.936779952316284,18.25628161643982Q4.851829952316284,18.18672161643982,4.770389952316284,18.11308161643982Q4.688959952316284,18.03945161643982,4.611249952316284,17.96192161643982Q4.533539952316284,17.884381616439818,4.459729952316284,17.80314161643982Q4.3859299523162845,17.72190161643982,4.316209952316284,17.63714161643982Q4.246485952316284,17.55238161643982,4.181017952316284,17.46431161643982Q4.115549952316284,17.37624161643982,4.054491952316284,17.28507161643982Q3.993433952316284,17.19390161643982,3.936932952316284,17.09985161643982Q3.8804329523162844,17.00581161643982,3.828624952316284,16.90911161643982Q3.7768179523162844,16.81240161643982,3.729828952316284,16.71328161643982Q3.682839952316284,16.61416161643982,3.6407829523162842,16.51286161643982Q3.5987249523162843,16.41156161643982,3.561700952316284,16.30832161643982Q3.5246759523162843,16.20508161643982,3.492772952316284,16.10016161643982Q3.4608709523162844,15.99523161643982,3.4341669523162843,15.888871616439818Q3.4074629523162843,15.78251161643982,3.386022152316284,15.67497161643982Q3.364581352316284,15.56743161643982,3.3484555523162842,15.458971616439818Q3.332329652316284,15.35051161643982,3.321557352316284,15.24139161643982Q3.310785152316284,15.13227161643982,3.305392562316284,15.02275161643982Q3.299999952316284,14.91324161643982,3.299999952316284,14.80359161643982Q3.299999952316284,14.693941616439819,3.305392562316284,14.584431616439819Q3.310785152316284,14.474911616439819,3.321557352316284,14.365791616439818Q3.332329652316284,14.256671616439819,3.3484555523162842,14.14821161643982Q3.364581352316284,14.039751616439819,3.386022152316284,13.932211616439819Q3.4074629523162843,13.824671616439819,3.4341669523162843,13.71831161643982Q3.4608709523162844,13.61194161643982,3.492772952316284,13.507021616439818Q3.5246759523162843,13.402091616439819,3.561700952316284,13.29885161643982Q3.5987249523162843,13.19562161643982,3.6407829523162842,13.09431161643982Q3.682839952316284,12.99301161643982,3.729828952316284,12.89389161643982Q3.7768179523162844,12.794771616439819,3.828624952316284,12.698071616439819Q3.8804329523162844,12.60137161643982,3.936932952316284,12.50732161643982Q3.993433952316284,12.41328161643982,4.054491952316284,12.32211161643982Q4.115549952316284,12.23094161643982,4.181017952316284,12.14287161643982Q4.246485952316284,12.05480161643982,4.316209952316284,11.970041616439818Q4.3859299523162845,11.88528161643982,4.459729952316284,11.80404161643982Q4.533539952316284,11.72279161643982,4.611249952316284,11.64526161643982Q4.688959952316284,11.567731616439819,4.770389952316284,11.49409161643982Q4.851829952316284,11.42046161643982,4.936779952316284,11.350901616439819Q5.021739952316285,11.28134161643982,5.110009952316284,11.21602461643982Q5.198279952316284,11.150707616439819,5.289659952316284,11.089790616439819Q5.381039952316284,11.02887361643982,5.475309952316284,10.97250361643982Q5.569569952316284,10.916133616439819,5.6664999523162844,10.86444561643982Q5.763419952316284,10.812758616439819,5.862769952316285,10.76587761643982Q5.962119952316284,10.71899761643982,6.063659952316284,10.677037616439819Q6.165189952316284,10.63507661643982,6.268669952316284,10.59813761643982Q6.372149952316285,10.56119861643982,6.477319952316284,10.52936961643982Q6.582489952316284,10.497540616439819,6.689089952316284,10.47089861643982Q6.7956999523162835,10.44425661643982,6.903489952316284,10.42286511643982Q7.0112799523162845,10.40147391643982,7.119989952316285,10.38538521643982Q7.228709952316285,10.369296616439819,7.338079952316284,10.35854931643982Q7.447449952316284,10.347801916439819,7.557219952316284,10.34242176643982Q7.6669899523162846,10.33704161643982,7.776889952316284,10.33704161643982Q7.961139952316284,10.33704161643982,8.144769952316285,10.35214711643982Q8.328399952316285,10.367252616439819,8.510159952316284,10.39736141643982Q8.691919952316283,10.427470216439819,8.870589952316283,10.47237861643982Q9.049259952316284,10.51728761643982,9.223619952316284,10.576691616439819Q9.397989952316284,10.63609561643982,9.566869952316285,10.70959461643982Q9.735759952316284,10.78309261643982,9.898009952316285,10.870188616439819Q10.060269952316284,10.957283616439819,10.214809952316283,11.057387616439819Q10.369339952316285,11.15749061643982,10.515109952316283,11.26992461643982Q10.660879952316284,11.38236161643982,10.796899952316284,11.506361616439818Q10.932909952316283,11.63037161643982,11.058249952316284,11.76510161643982Q11.183589952316284,11.899841616439819,11.297409952316285,12.04439161643982Q11.411229952316285,12.18895161643982,11.512759952316284,12.342351616439819Q11.614289952316284,12.495751616439819,11.702839952316284,12.65695161643982Q11.791399952316285,12.81816161643982,11.866369952316283,12.986071616439819Q11.941349952316283,13.15399161643982,12.002239952316284,13.327491616439819Q12.063129952316284,13.50099161643982,12.109519952316283,13.67889161643982C12.181619952316284,13.840671616439819,12.213859952316284,14.09008161643982,12.253679952316284,14.39821161643982C12.364169952316285,15.253061616439819,12.533079952316283,16.55985161643982,13.773599952316284,17.70134161643982C15.825099952316284,19.58918161643982,16.464599952316284,19.56254161643982,19.155699952316283,20.094241616439817Q15.158999952316284,20.38694161643982,11.908429952316284,19.88184161643982Q8.939979952316286,19.42061161643982,7.837929952316284,19.269721616439817Z" fill-rule="evenodd" fill="url(#master_svg7_1_22217)" fill-opacity="1"/></g></g></g></g></g></svg>